<?xml version="1.0" encoding="UTF-8" standalone="no"?>
<!DOCTYPE svg PUBLIC "-//W3C//DTD SVG 1.1//EN" "http://www.w3.org/Graphics/SVG/1.1/DTD/svg11.dtd">
<svg width="100%" height="100%" viewBox="0 0 95 85" version="1.1" xmlns="http://www.w3.org/2000/svg" xmlns:xlink="http://www.w3.org/1999/xlink" xml:space="preserve" xmlns:serif="http://www.serif.com/" style="fill-rule:evenodd;clip-rule:evenodd;stroke-linejoin:round;stroke-miterlimit:2;">
    <g transform="matrix(1,0,0,1,-7.7854,-17.6608)">
        <g transform="matrix(1,0,0,1,5,10)">
            <path d="M95.844,92.379L4.176,92.379C3.41,92.379 2.785,91.758 2.785,90.988L2.785,57.656C2.785,56.891 3.406,56.266 4.176,56.266L95.844,56.266C96.61,56.266 97.235,56.887 97.235,57.656L97.235,90.988C97.231,91.758 96.61,92.379 95.844,92.379ZM5.567,89.602L94.458,89.602L94.458,59.047L5.567,59.047L5.567,89.602Z" style="fill:white;fill-rule:nonzero;"/>
            <path d="M22.23,92.379C21.464,92.379 20.839,91.758 20.839,90.988C20.839,90.223 21.46,89.598 22.23,89.598C22.347,89.598 33.996,89.508 37.707,83.328C43.184,74.203 43.938,75.809 55.078,71.633C64.992,67.914 63.957,58.235 63.91,57.824C63.82,57.063 64.359,56.371 65.121,56.277C65.879,56.184 66.57,56.723 66.668,57.48C66.683,57.605 67.039,60.602 65.918,64.149C64.875,67.453 62.316,71.883 56.054,74.231C44.847,78.434 44.993,76.586 40.09,84.754C35.57,92.293 22.774,92.379 22.231,92.379L22.23,92.379Z" style="fill:white;fill-rule:nonzero;"/>
            <path d="M3.555,92.234C2.867,91.89 2.59,91.058 2.934,90.371C3.176,89.886 8.961,78.492 16.676,78.492C23.199,78.492 26.437,76.753 27.86,72.496C29.532,67.48 31.715,67.39 42.895,66C53.149,64.718 57.063,57.113 57.102,57.035C57.445,56.347 58.277,56.07 58.965,56.414C59.652,56.757 59.93,57.589 59.586,58.277C59.402,58.644 54.953,67.293 43.238,68.757L41.906,68.921C31.84,70.171 31.519,70.296 30.496,73.37C28.164,80.366 21.887,81.265 16.68,81.265C11.7,81.265 6.864,88.733 5.422,91.609C5.074,92.296 4.242,92.577 3.555,92.234L3.555,92.234Z" style="fill:white;fill-rule:nonzero;"/>
            <path d="M95.844,92.379L53.367,92.379C52.816,92.379 52.316,92.051 52.094,91.547C49.312,85.184 55.156,78.324 61.922,80.172C63.441,76.664 66.918,74.324 70.84,74.324C74.668,74.324 78.07,76.531 79.648,79.93C81.551,79.723 83.48,80.16 85.113,81.231C87.597,77.711 92.156,76.191 96.301,77.66C96.856,77.856 97.227,78.383 97.227,78.969L97.227,90.992C97.231,91.757 96.61,92.379 95.844,92.379L95.844,92.379ZM94.453,89.602L94.453,80.02C91.266,79.371 88.094,81.031 86.762,83.914C86.356,84.793 85.196,84.996 84.516,84.309C83.051,82.828 80.989,82.356 79.137,82.848C78.422,83.039 77.684,82.633 77.457,81.93C76.532,79.043 73.875,77.106 70.844,77.106C67.672,77.106 64.906,79.25 64.117,82.317C64.012,82.719 63.735,83.055 63.356,83.231C62.977,83.406 62.539,83.403 62.164,83.219C61.403,82.848 60.586,82.66 59.735,82.66C56.117,82.66 53.445,86.09 54.356,89.606C55.309,89.602 91.215,89.602 94.454,89.602L94.453,89.602Z" style="fill:white;fill-rule:nonzero;"/>
            <path d="M15.289,65.992L9.734,65.992C8.969,65.992 8.344,65.371 8.344,64.601C8.344,63.836 8.965,63.211 9.734,63.211L15.289,63.211C16.055,63.211 16.68,63.832 16.68,64.601C16.676,65.371 16.055,65.992 15.289,65.992Z" style="fill:white;fill-rule:nonzero;"/>
            <path d="M16.676,71.547L12.508,71.547C11.742,71.547 11.117,70.926 11.117,70.156C11.117,69.391 11.738,68.766 12.508,68.766L16.676,68.766C17.442,68.766 18.067,69.387 18.067,70.156C18.067,70.926 17.442,71.547 16.676,71.547Z" style="fill:white;fill-rule:nonzero;"/>
            <path d="M23.621,71.547L22.23,71.547C21.465,71.547 20.84,70.926 20.84,70.156C20.84,69.391 21.461,68.766 22.23,68.766L23.621,68.766C24.387,68.766 25.012,69.387 25.012,70.156C25.008,70.926 24.387,71.547 23.621,71.547Z" style="fill:white;fill-rule:nonzero;"/>
            <path d="M30.566,64.602L27.789,64.602C27.023,64.602 26.398,63.981 26.398,63.211C26.398,62.446 27.019,61.821 27.789,61.821L30.566,61.821C31.332,61.821 31.957,62.442 31.957,63.211C31.953,63.981 31.332,64.602 30.566,64.602Z" style="fill:white;fill-rule:nonzero;"/>
            <path d="M33.344,59.047L27.789,59.047C27.024,59.047 26.399,58.426 26.399,57.656L26.399,47.472C26.399,46.707 27.02,46.082 27.789,46.082C28.555,46.082 29.18,46.703 29.18,47.472L29.18,56.269L31.957,56.269L31.957,47.472C31.957,46.707 32.578,46.082 33.348,46.082C34.113,46.082 34.738,46.703 34.738,47.472L34.738,57.656C34.731,58.426 34.109,59.047 33.344,59.047L33.344,59.047Z" style="fill:white;fill-rule:nonzero;"/>
            <path d="M52.789,59.047L47.234,59.047C46.469,59.047 45.844,58.426 45.844,57.656L45.844,47.472C45.844,46.707 46.465,46.082 47.234,46.082C48,46.082 48.625,46.703 48.625,47.472L48.625,56.269L51.402,56.269L51.402,47.472C51.402,46.707 52.023,46.082 52.793,46.082C53.558,46.082 54.183,46.703 54.183,47.472L54.183,57.656C54.176,58.426 53.554,59.047 52.789,59.047L52.789,59.047Z" style="fill:white;fill-rule:nonzero;"/>
            <path d="M72.23,59.047L66.675,59.047C65.91,59.047 65.285,58.426 65.285,57.656L65.285,47.472C65.285,46.707 65.906,46.082 66.675,46.082C67.441,46.082 68.066,46.703 68.066,47.472L68.066,56.269L70.843,56.269L70.843,47.472C70.843,46.707 71.464,46.082 72.234,46.082C72.999,46.082 73.624,46.703 73.624,47.472L73.624,57.656C73.62,58.426 72.999,59.047 72.23,59.047L72.23,59.047Z" style="fill:white;fill-rule:nonzero;"/>
            <path d="M86.121,59.047L80.566,59.047C79.801,59.047 79.176,58.426 79.176,57.656L79.176,49.684C79.176,48.918 79.797,48.293 80.566,48.293C81.332,48.293 81.957,48.914 81.957,49.684L81.957,56.27L84.734,56.27L84.734,49.684C84.734,48.918 85.355,48.293 86.125,48.293C86.89,48.293 87.515,48.914 87.515,49.684L87.515,57.656C87.508,58.426 86.886,59.047 86.121,59.047L86.121,59.047Z" style="fill:white;fill-rule:nonzero;"/>
            <path d="M76.117,45.844C75.801,45.145 76.113,44.321 76.812,44.008C77.512,43.692 78.336,44.004 78.648,44.703C79.972,47.641 81.679,49.325 83.34,49.325C86.625,49.325 90.285,42.481 90.285,32.657C90.285,22.836 86.625,15.989 83.34,15.989C82.058,15.989 80.715,17.016 79.554,18.883C79.148,19.535 78.293,19.735 77.64,19.328C76.988,18.922 76.789,18.067 77.195,17.414C78.906,14.66 81.031,13.207 83.339,13.207C86.136,13.207 88.679,15.371 90.492,19.301C93.918,26.727 93.921,38.574 90.492,46C86.757,54.106 79.898,54.238 76.117,45.844L76.117,45.844Z" style="fill:white;fill-rule:nonzero;"/>
            <path d="M19.453,59.047L13.898,59.047C13.133,59.047 12.508,58.426 12.508,57.656L12.508,49.684C12.508,48.918 13.129,48.293 13.898,48.293C14.664,48.293 15.289,48.914 15.289,49.684L15.289,56.27L18.066,56.27L18.066,49.684C18.066,48.918 18.687,48.293 19.457,48.293C20.222,48.293 20.847,48.914 20.847,49.684L20.847,57.656C20.843,58.426 20.222,59.047 19.453,59.047L19.453,59.047Z" style="fill:white;fill-rule:nonzero;"/>
            <path d="M9.523,46.008C6.098,38.586 6.094,26.735 9.523,19.309C13.277,11.172 20.07,11.161 23.832,19.309C27.258,26.731 27.262,38.582 23.832,46.008C20.075,54.145 13.285,54.156 9.523,46.008ZM16.676,15.992C13.391,15.992 9.73,22.836 9.73,32.66C9.73,42.48 13.391,49.328 16.676,49.328C19.961,49.328 23.621,42.484 23.621,32.66C23.621,22.836 19.961,15.992 16.676,15.992Z" style="fill:white;fill-rule:nonzero;"/>
            <path d="M25.293,47.762C24.449,47.192 23.484,46.813 22.418,46.645C21.66,46.524 21.145,45.813 21.266,45.055C21.387,44.297 22.098,43.782 22.856,43.903C24.328,44.137 25.672,44.661 26.856,45.465C28.973,46.907 32.164,46.903 34.274,45.465C37.254,43.442 40.25,43.809 40.606,43.766C41.371,43.766 41.996,44.387 41.996,45.157C41.996,45.922 41.375,46.547 40.606,46.547C40.289,46.582 38.012,46.285 35.836,47.766C32.797,49.836 28.356,49.852 25.293,47.762L25.293,47.762Z" style="fill:white;fill-rule:nonzero;"/>
            <path d="M25.855,38.207C25.418,37.91 24.929,37.672 24.414,37.5C23.687,37.258 23.293,36.473 23.535,35.742C23.777,35.016 24.562,34.621 25.292,34.863C26.05,35.117 26.765,35.469 27.417,35.91C29.214,37.133 31.925,37.129 33.714,35.91C35.175,34.918 36.929,34.395 38.792,34.395L41.781,34.395C42.546,34.395 43.171,35.016 43.171,35.785C43.171,36.551 42.55,37.176 41.781,37.176L38.792,37.176C37.488,37.176 36.273,37.535 35.273,38.211C32.554,40.059 28.605,40.078 25.855,38.207L25.855,38.207Z" style="fill:white;fill-rule:nonzero;"/>
            <path d="M26.641,28.715C26.004,28.281 25.235,28.02 24.411,27.953C23.645,27.891 23.075,27.223 23.137,26.457C23.2,25.692 23.864,25.121 24.633,25.184C25.934,25.289 27.168,25.715 28.2,26.418C29.543,27.328 31.582,27.332 32.926,26.418C34.137,25.594 35.594,25.156 37.145,25.156L41.258,25.156C42.024,25.156 42.649,25.778 42.649,26.547C42.649,27.313 42.028,27.938 41.258,27.938L37.145,27.938C36.157,27.938 35.239,28.207 34.489,28.719C32.208,30.266 28.926,30.27 26.641,28.715L26.641,28.715Z" style="fill:white;fill-rule:nonzero;"/>
            <path d="M22.418,22.473C21.766,22.067 21.57,21.211 21.977,20.559L23.199,18.598C23.606,17.946 24.461,17.75 25.113,18.157C25.766,18.563 25.961,19.418 25.555,20.071L24.332,22.032C23.922,22.688 23.063,22.879 22.418,22.473Z" style="fill:white;fill-rule:nonzero;"/>
            <path d="M27.004,21.465C26.266,20.981 25.461,20.727 24.668,20.727L22.301,20.727C21.535,20.727 20.91,20.106 20.91,19.336C20.215,18.899 20.059,18.012 20.488,17.375L25.082,10.571C27.692,6.711 33.414,6.672 36.047,10.571L41.438,18.559C42.059,19.481 41.399,20.723 40.286,20.723L36.461,20.723C35.668,20.723 34.864,20.977 34.129,21.461C32.036,22.836 29.098,22.84 27.004,21.465L27.004,21.465ZM23.457,17.949C24.176,18.028 26.156,17.586 28.531,19.145C29.692,19.906 31.438,19.91 32.606,19.145C34.977,17.586 36.961,18.028 37.676,17.949L33.746,12.125C32.223,9.871 28.906,9.875 27.387,12.125L23.457,17.949Z" style="fill:white;fill-rule:nonzero;"/>
            <path d="M44.738,47.762C43.566,46.965 42.136,46.547 40.605,46.547L34.73,46.547C33.64,46.547 32.976,45.348 33.551,44.422L39.41,35.047C39.816,34.399 40.672,34.2 41.324,34.606C41.972,35.012 42.172,35.867 41.765,36.52L37.234,43.77L40.601,43.77C42.691,43.77 44.66,44.356 46.293,45.465C48.406,46.907 51.598,46.907 53.711,45.465C55.348,44.352 57.316,43.766 59.406,43.766L62.773,43.766L58.242,36.516C57.836,35.864 58.035,35.008 58.684,34.602C59.336,34.196 60.191,34.391 60.598,35.043L66.457,44.418C67.035,45.34 66.367,46.543 65.277,46.543L59.402,46.543C57.871,46.543 56.441,46.965 55.27,47.762C52.238,49.836 47.801,49.852 44.739,47.762L44.738,47.762Z" style="fill:white;fill-rule:nonzero;"/>
            <path d="M45.301,38.207C44.305,37.531 43.09,37.172 41.785,37.172L36.645,37.172C35.555,37.172 34.891,35.973 35.465,35.047L41.239,25.808C41.645,25.156 42.5,24.961 43.153,25.367C43.805,25.773 44,26.629 43.594,27.281L39.149,34.394L41.785,34.394C43.649,34.394 45.407,34.918 46.864,35.91C48.66,37.133 51.371,37.129 53.16,35.91C54.621,34.918 56.375,34.394 58.239,34.394L60.875,34.394L56.43,27.281C56.024,26.629 56.223,25.773 56.871,25.367C57.524,24.961 58.379,25.16 58.785,25.808L64.559,35.047C65.137,35.969 64.469,37.172 63.379,37.172L58.239,37.172C56.934,37.172 55.719,37.531 54.719,38.207C52,40.059 48.047,40.078 45.301,38.207L45.301,38.207Z" style="fill:white;fill-rule:nonzero;"/>
            <path d="M46.086,28.715C45.336,28.203 44.418,27.934 43.43,27.934L39.317,27.934C38.813,27.934 38.348,27.66 38.102,27.219C37.856,26.778 37.871,26.238 38.137,25.809L42.641,18.598C43.047,17.945 43.902,17.75 44.555,18.156C45.207,18.563 45.403,19.418 44.996,20.071L41.82,25.156C42.766,25.246 45.195,24.75 47.645,26.418C48.984,27.328 51.027,27.328 52.371,26.418C54.817,24.754 57.238,25.25 58.195,25.156L55.02,20.071C54.613,19.418 54.813,18.563 55.461,18.156C56.11,17.75 56.969,17.945 57.375,18.598L61.879,25.809C62.457,26.731 61.789,27.934 60.699,27.934L56.586,27.934C55.598,27.934 54.68,28.203 53.93,28.715C51.653,30.266 48.371,30.27 46.086,28.715L46.086,28.715Z" style="fill:white;fill-rule:nonzero;"/>
            <path d="M46.445,21.465C45.711,20.981 44.902,20.727 44.109,20.727L40.285,20.727C39.176,20.727 38.512,19.481 39.133,18.563L44.523,10.574C47.14,6.695 52.867,6.684 55.488,10.574L60.879,18.563C61.5,19.485 60.84,20.727 59.727,20.727L55.902,20.727C55.113,20.727 54.305,20.981 53.566,21.465C51.481,22.836 48.539,22.84 46.445,21.465L46.445,21.465ZM42.898,17.949C43.605,18.024 45.59,17.582 47.968,19.145C49.136,19.91 50.883,19.906 52.043,19.145C54.414,17.59 56.402,18.028 57.113,17.949L53.191,12.125C51.675,9.879 48.355,9.867 46.832,12.125L42.898,17.949Z" style="fill:white;fill-rule:nonzero;"/>
            <path d="M64.18,47.762C63.008,46.965 61.578,46.547 60.047,46.547L59.41,46.547C58.645,46.547 58.02,45.926 58.02,45.157C58.02,44.391 58.641,43.766 59.41,43.766C59.758,43.809 62.77,43.446 65.742,45.461C67.856,46.903 71.047,46.903 73.16,45.461C74.797,44.348 76.766,43.762 78.856,43.762L82.223,43.762L77.692,36.512C77.286,35.86 77.485,35.004 78.133,34.598C78.782,34.192 79.641,34.387 80.047,35.039L85.907,44.414C86.485,45.336 85.817,46.539 84.727,46.539L78.852,46.539C77.321,46.539 75.891,46.961 74.719,47.758C71.684,49.836 67.246,49.852 64.18,47.762L64.18,47.762Z" style="fill:white;fill-rule:nonzero;"/>
            <path d="M64.742,38.207C63.746,37.531 62.531,37.172 61.226,37.172L58.238,37.172C57.472,37.172 56.848,36.551 56.848,35.781C56.848,35.016 57.469,34.391 58.238,34.391L61.226,34.391C63.09,34.391 64.848,34.914 66.305,35.906C68.101,37.129 70.812,37.125 72.601,35.906C74.062,34.914 75.816,34.391 77.68,34.391L80.316,34.391L75.871,27.277C75.465,26.625 75.664,25.77 76.312,25.363C76.965,24.957 77.82,25.156 78.226,25.805L84,35.043C84.578,35.965 83.91,37.168 82.82,37.168L77.68,37.168C76.375,37.168 75.16,37.527 74.16,38.203C71.445,40.059 67.492,40.078 64.742,38.207L64.742,38.207Z" style="fill:white;fill-rule:nonzero;"/>
            <path d="M65.527,28.715C64.777,28.203 63.859,27.934 62.871,27.934L58.758,27.934C57.992,27.934 57.367,27.313 57.367,26.543C57.367,25.778 57.988,25.153 58.758,25.153L62.871,25.153C64.418,25.153 65.879,25.59 67.09,26.414C68.429,27.324 70.472,27.324 71.816,26.414C74.262,24.75 76.683,25.246 77.64,25.153L74.465,20.067C74.058,19.414 74.258,18.559 74.906,18.153C75.554,17.746 76.414,17.942 76.82,18.594L81.324,25.805C81.902,26.727 81.234,27.93 80.144,27.93L76.031,27.93C75.043,27.93 74.125,28.199 73.375,28.711C71.098,30.266 67.812,30.27 65.527,28.715L65.527,28.715Z" style="fill:white;fill-rule:nonzero;"/>
            <path d="M65.891,21.465C65.157,20.981 64.348,20.727 63.555,20.727L59.731,20.727C58.622,20.727 57.958,19.481 58.579,18.563L63.969,10.574C66.586,6.695 72.313,6.684 74.934,10.574L80.325,18.563C80.946,19.485 80.286,20.727 79.173,20.727L75.348,20.727C74.559,20.727 73.751,20.981 73.012,21.465C70.927,22.836 67.985,22.84 65.891,21.465L65.891,21.465ZM62.344,17.949C63.051,18.024 65.036,17.582 67.414,19.145C68.582,19.91 70.329,19.906 71.489,19.145C73.86,17.59 75.848,18.028 76.559,17.949L72.633,12.125C71.118,9.879 67.797,9.867 66.274,12.125L62.344,17.949Z" style="fill:white;fill-rule:nonzero;"/>
            <path d="M12.918,40.176C12.375,39.633 12.375,38.754 12.918,38.211C13.461,37.668 14.34,37.668 14.883,38.211C15.426,37.668 16.305,37.668 16.848,38.211C17.391,38.754 17.391,39.633 16.848,40.176C15.762,41.262 14,41.262 12.918,40.176L12.918,40.176Z" style="fill:white;fill-rule:nonzero;"/>
            <path d="M16.508,35.027C15.965,34.484 15.965,33.605 16.508,33.062C17.051,32.519 17.93,32.519 18.473,33.062C19.016,32.519 19.895,32.519 20.438,33.062C20.981,33.605 20.981,34.484 20.438,35.027C19.352,36.113 17.59,36.113 16.508,35.027L16.508,35.027Z" style="fill:white;fill-rule:nonzero;"/>
            <path d="M15.117,25.305C14.574,24.762 14.574,23.883 15.117,23.34C15.66,22.797 16.539,22.797 17.082,23.34C17.625,22.797 18.504,22.797 19.047,23.34C19.59,23.883 19.59,24.762 19.047,25.305C17.965,26.391 16.203,26.391 15.117,25.305L15.117,25.305Z" style="fill:white;fill-rule:nonzero;"/>
            <path d="M12.918,30.457C12.375,29.914 12.375,29.035 12.918,28.492C13.461,27.949 14.34,27.949 14.883,28.492C15.426,27.949 16.305,27.949 16.848,28.492C17.391,29.035 17.391,29.914 16.848,30.457C15.762,31.539 14,31.539 12.918,30.457L12.918,30.457Z" style="fill:white;fill-rule:nonzero;"/>
        </g>
    </g>
</svg>
